<?xml version="1.0" encoding="utf-8"?>
<!-- Generator: Adobe Illustrator 24.1.2, SVG Export Plug-In . SVG Version: 6.00 Build 0)  -->
<svg version="1.1" id="Layer_1" xmlns="http://www.w3.org/2000/svg" xmlns:xlink="http://www.w3.org/1999/xlink" x="0px" y="0px"
	 viewBox="0 0 371.3 56.7" style="enable-background:new 0 0 371.3 56.7;" xml:space="preserve">
<style type="text/css">
	.st0{fill:#FFFFFF;}
</style>
<path class="st0" d="M55.8,38.7c0,12.1-11.5,16.6-25.2,16.6c-16.8,0-23.9-6.4-26.8-11.1c-0.1-0.1-0.1-0.2-0.2-0.3
	c-2.1-3.2-2-6.4-2-6.4h10.2l0,0c1.8,3.7,5.6,9.1,19.1,9.1c8.2,0,14.9-2.7,14.9-7.1c0-3.3-3.8-5.5-11.1-6.4l-12.2-1.7
	C10.7,29.9,4.1,24.7,4.1,16.9C4.1,1.6,24,1.6,27.9,1.6c22,0,25.8,10.2,27.1,13.7l-9.4,3.1c-1.6-4.6-5.8-8.5-17.9-8.5
	c-6.8,0-13.6,1.7-13.6,6.4c0,2.2,1.3,4.5,11.5,5.8l12.1,1.8C49.1,25.7,55.8,30.1,55.8,38.7z M65.3,2.9h45.9v8.6H75.3v11.9h30.9V32
	H75.3v13.5H112v8.6H65.3V2.9z M139.2,34.2H161l-10.9-23.3L139.2,34.2z M155.8,2.9L180.6,54H170l-5.1-11.3H135L129.8,54h-10.6
	l25.2-51.1H155.8z M237.3,38.7c0,12.1-11.5,16.6-25.2,16.6c-16.8,0-23.9-6.4-26.8-11.1c-0.1-0.1-0.1-0.2-0.2-0.3
	c-2.1-3.2-2-6.4-2-6.4h10.2l0,0c1.8,3.7,5.6,9.1,19.1,9.1c8.2,0,14.9-2.7,14.9-7.1c0-3.3-3.8-5.5-11.1-6.4L204,31.4
	c-11.8-1.6-18.4-6.8-18.4-14.6c0-15.3,19.9-15.3,23.8-15.3c22,0,25.8,10.2,27.1,13.7l-9.4,3.1c-1.6-4.6-5.8-8.5-17.9-8.5
	c-6.8,0-13.6,1.7-13.6,6.4c0,2.2,1.3,4.5,11.5,5.8l12.1,1.8C230.5,25.7,237.3,30.1,237.3,38.7z M275.7,46.7
	c9.6,0,20.5-3.9,20.5-18.4c0-12.3-8.8-18.1-20.5-18.1s-20.5,5.8-20.5,18.1C255.2,42.8,266.1,46.7,275.7,46.7z M275.7,1.6
	c22.5,0,30.5,13.2,30.5,27.2c0,10.6-6.3,26.4-30.5,26.4s-30.5-15.8-30.5-26.4C245.3,14.8,253.2,1.6,275.7,1.6z M369.7,2.9V54h-9.1
	L325,15.7V54h-9.6V2.9h10.5l34.2,36.9V2.9H369.7z"/>
</svg>
